# xmcd
#
# Track frame offsets: 
#        150
#        17309
#        31712
#        48129
#        64970
#        83041
#        98724
#        114728
#        129584
#        146433
#        160877
#
# Disc length: 2359 seconds
#
# Revision: 0
# Processed by: cddbd v1.5.2PL0 Copyright (c) Steve Scherf et al.
# Submitted via: ExactAudioCopy v0.95b3
#
DISCID=8109350b
DTITLE=Uncle Kracker - Midnight Special
DYEAR=2013
DGENRE=Country
TTITLE0=You Got That Thang
TTITLE1=I'd Be There
TTITLE2=Four Letter Word
TTITLE3=Blue Skies
TTITLE4=When I Close My Eyes
TTITLE5=In Between Disasters
TTITLE6=Happy
TTITLE7=Nobody's Sad On Sturday Night
TTITLE8=Nothin' Changes
TTITLE9=Who We Are
TTITLE10=It Is What It Is
EXTD=
EXTT0=
EXTT1=
EXTT2=
EXTT3=
EXTT4=
EXTT5=
EXTT6=
EXTT7=
EXTT8=
EXTT9=
EXTT10=
PLAYORDER=
